<svg xmlns="http://www.w3.org/2000/svg" viewBox="0 0 800 800"><title>bg</title><rect width="160" height="160" style="fill:#70a5c5"/><rect x="160" width="160" height="160" style="fill:#596273"/><rect x="320" width="160" height="160" style="fill:#dce4e7"/><rect x="480" width="160" height="160" style="fill:#ec8658"/><rect x="640" width="160" height="160" style="fill:#fcbf0f"/><rect y="160" width="160" height="160" style="fill:#fcbf0f"/><rect x="160" y="160" width="160" height="160" style="fill:#dce4e7"/><rect x="320" y="160" width="160" height="160" style="fill:#ec8658"/><rect x="480" y="160" width="160" height="160" style="fill:#596273"/><rect x="640" y="160" width="160" height="160" style="fill:#70a5c5"/><rect y="320" width="160" height="160" style="fill:#596273"/><rect x="160" y="320" width="160" height="160" style="fill:#70a5c5"/><rect x="320" y="320" width="160" height="160" style="fill:#dce4e7"/><rect x="480" y="320" width="160" height="160" style="fill:#fcbf0f"/><rect x="640" y="320" width="160" height="160" style="fill:#ec8658"/><rect y="480" width="160" height="160" style="fill:#dce4e7"/><rect x="160" y="480" width="160" height="160" style="fill:#ec8658"/><rect x="320" y="480" width="160" height="160" style="fill:#fcbf0f"/><rect x="480" y="480" width="160" height="160" style="fill:#70a5c5"/><rect x="640" y="480" width="160" height="160" style="fill:#596273"/><rect y="640" width="160" height="160" style="fill:#ec8658"/><rect x="160" y="640" width="160" height="160" style="fill:#fcbf0f"/><rect x="320" y="640" width="160" height="160" style="fill:#70a5c5"/><rect x="480" y="640" width="160" height="160" style="fill:#596273"/><rect x="640" y="640" width="160" height="160" style="fill:#dce4e7"/><path d="M561.9,25.44q12.08,0,19.64,2.78a34,34,0,0,1,11.86,6.87,22.48,22.48,0,0,1,5.9,8.53,22.74,22.74,0,0,1-.76,18.46,42.49,42.49,0,0,1-5.69,8.6A94.26,94.26,0,0,1,585.91,78a48.66,48.66,0,0,0-6.11,6.87c-1,1.39-1.8,2.41-2.36,3.06a3.3,3.3,0,0,1-2.63,1h-29.7a2.54,2.54,0,0,1-1.87-.77,2.35,2.35,0,0,1-.76-1.73,3.41,3.41,0,0,1,.14-1.11,25,25,0,0,1,5.06-9,102.51,102.51,0,0,1,7.21-7.56q3.69-3.46,6.46-6.39t2.77-5.41a4.15,4.15,0,0,0-1.32-3.26,4.94,4.94,0,0,0-3.4-1.18c-2.49,0-4.23.44-5.2,1.32a11.21,11.21,0,0,0-2.36,3,25.22,25.22,0,0,1-1.87,3c-.65.88-1.85,1.31-3.61,1.31H520.55A2.9,2.9,0,0,1,518,59.79a4.9,4.9,0,0,1-.91-2.85V56.8A26.25,26.25,0,0,1,519.93,46a30.8,30.8,0,0,1,8.19-10.13A43.74,43.74,0,0,1,542,28.36,60.92,60.92,0,0,1,561.9,25.44Zm10,69a3.79,3.79,0,0,1,3.75,3.74v22.07a3.79,3.79,0,0,1-3.75,3.74H546.5a3.79,3.79,0,0,1-3.75-3.74V98.15a3.79,3.79,0,0,1,3.75-3.74Z" style="fill:#596273"/><path d="M722.39,346.18q12.08,0,19.64,2.78a34,34,0,0,1,11.86,6.87,22.48,22.48,0,0,1,5.9,8.53,22.7,22.7,0,0,1-.77,18.46,41.67,41.67,0,0,1-5.69,8.6,94.15,94.15,0,0,1-6.93,7.28,48.66,48.66,0,0,0-6.11,6.87c-1,1.39-1.8,2.41-2.36,3.06a3.3,3.3,0,0,1-2.63,1H705.6a2.54,2.54,0,0,1-1.87-.77,2.35,2.35,0,0,1-.76-1.73,3.75,3.75,0,0,1,.13-1.11,25.14,25.14,0,0,1,5.07-8.95,102.51,102.51,0,0,1,7.21-7.56q3.68-3.47,6.46-6.39t2.77-5.41a4.15,4.15,0,0,0-1.32-3.26,4.94,4.94,0,0,0-3.4-1.18c-2.49,0-4.23.44-5.2,1.32a11.21,11.21,0,0,0-2.36,3,26.59,26.59,0,0,1-1.87,3c-.65.88-1.85,1.31-3.61,1.31H681a2.9,2.9,0,0,1-2.56-1.31,4.9,4.9,0,0,1-.91-2.85v-.14a26.1,26.1,0,0,1,2.85-10.82,30.89,30.89,0,0,1,8.18-10.13,43.9,43.9,0,0,1,13.88-7.49A60.65,60.65,0,0,1,722.39,346.18Zm10,69a3.79,3.79,0,0,1,3.75,3.74V441a3.79,3.79,0,0,1-3.75,3.74H707a3.79,3.79,0,0,1-3.75-3.74V418.89a3.79,3.79,0,0,1,3.75-3.74Z" style="fill:#596273"/><path d="M561.9,506.55q12.08,0,19.64,2.78a34,34,0,0,1,11.86,6.87,22.48,22.48,0,0,1,5.9,8.53,22.74,22.74,0,0,1-.76,18.46,42.49,42.49,0,0,1-5.69,8.6,94.26,94.26,0,0,1-6.94,7.28,48.66,48.66,0,0,0-6.11,6.87c-1,1.39-1.8,2.41-2.36,3.06a3.3,3.3,0,0,1-2.63,1h-29.7a2.54,2.54,0,0,1-1.87-.77,2.35,2.35,0,0,1-.76-1.73,3.41,3.41,0,0,1,.14-1.11,25,25,0,0,1,5.06-9,102.51,102.51,0,0,1,7.21-7.56q3.69-3.47,6.46-6.39t2.77-5.41a4.16,4.16,0,0,0-1.32-3.26,4.94,4.94,0,0,0-3.4-1.18c-2.49,0-4.23.44-5.2,1.32a11.21,11.21,0,0,0-2.36,3,25.22,25.22,0,0,1-1.87,3c-.65.88-1.85,1.31-3.61,1.31H520.55A2.9,2.9,0,0,1,518,540.9a4.9,4.9,0,0,1-.91-2.85v-.14a26.25,26.25,0,0,1,2.85-10.82A30.8,30.8,0,0,1,528.12,517,43.74,43.74,0,0,1,542,509.47,60.92,60.92,0,0,1,561.9,506.55Zm10,69a3.79,3.79,0,0,1,3.75,3.74v22.07a3.79,3.79,0,0,1-3.75,3.74H546.5a3.79,3.79,0,0,1-3.75-3.74V579.26a3.79,3.79,0,0,1,3.75-3.74Z" style="fill:#596273"/><path d="M242.42,666.92q12.08,0,19.63,2.78a34.06,34.06,0,0,1,11.87,6.87,22.44,22.44,0,0,1,5.89,8.53,23.33,23.33,0,0,1,1.6,7.77,23.63,23.63,0,0,1-2.36,10.69,42.08,42.08,0,0,1-5.69,8.6,92.39,92.39,0,0,1-6.94,7.28,48.56,48.56,0,0,0-6.1,6.87c-1,1.39-1.81,2.41-2.36,3.06a3.33,3.33,0,0,1-2.64,1H225.63a2.53,2.53,0,0,1-1.87-.77,2.37,2.37,0,0,1-.77-1.73,3.71,3.71,0,0,1,.14-1.11,25.27,25.27,0,0,1,5.06-9,102.6,102.6,0,0,1,7.22-7.56q3.68-3.47,6.45-6.39t2.78-5.41a4.15,4.15,0,0,0-1.32-3.26,4.94,4.94,0,0,0-3.4-1.18q-3.75,0-5.2,1.32a11.21,11.21,0,0,0-2.36,3,25.24,25.24,0,0,1-1.88,3c-.64.88-1.85,1.31-3.6,1.31H201.07a2.92,2.92,0,0,1-2.57-1.31,5,5,0,0,1-.9-2.85v-.14a26.23,26.23,0,0,1,2.84-10.82,30.92,30.92,0,0,1,8.19-10.13,43.79,43.79,0,0,1,13.88-7.49A60.61,60.61,0,0,1,242.42,666.92Zm10,69a3.81,3.81,0,0,1,3.75,3.74V761.7a3.81,3.81,0,0,1-3.75,3.74H227a3.79,3.79,0,0,1-3.75-3.74V739.63a3.79,3.79,0,0,1,3.75-3.74Z" style="fill:#596273"/><path d="M81.6,185.81q12.06,0,19.63,2.78a33.91,33.91,0,0,1,11.86,6.87A22.37,22.37,0,0,1,119,204a22.64,22.64,0,0,1-.76,18.46,42.49,42.49,0,0,1-5.69,8.6,92.39,92.39,0,0,1-6.94,7.28,47.94,47.94,0,0,0-6.1,6.87c-1,1.39-1.81,2.41-2.36,3.06a3.33,3.33,0,0,1-2.64,1H64.81a2.55,2.55,0,0,1-1.88-.77,2.35,2.35,0,0,1-.76-1.73,3.41,3.41,0,0,1,.14-1.11,25.12,25.12,0,0,1,5.06-9,102.6,102.6,0,0,1,7.22-7.56q3.68-3.47,6.45-6.39t2.78-5.41a4.15,4.15,0,0,0-1.32-3.26,4.94,4.94,0,0,0-3.4-1.18c-2.5,0-4.23.44-5.21,1.32a11.41,11.41,0,0,0-2.36,3,25.22,25.22,0,0,1-1.87,3c-.65.88-1.85,1.31-3.61,1.31H40.25a2.92,2.92,0,0,1-2.57-1.31,5,5,0,0,1-.9-2.85v-.14a26.23,26.23,0,0,1,2.84-10.82,30.92,30.92,0,0,1,8.19-10.13,43.85,43.85,0,0,1,13.87-7.49A61,61,0,0,1,81.6,185.81Zm10,69a3.79,3.79,0,0,1,3.74,3.74v22.07a3.79,3.79,0,0,1-3.74,3.74H66.19a3.79,3.79,0,0,1-3.74-3.74V258.52a3.79,3.79,0,0,1,3.74-3.74Z" style="fill:#596273"/><path d="M399.91,25.44q12.07,0,19.63,2.78a34,34,0,0,1,11.87,6.87,22.48,22.48,0,0,1,5.9,8.53,22.7,22.7,0,0,1-.77,18.46,42.08,42.08,0,0,1-5.69,8.6A94.15,94.15,0,0,1,423.92,78a48.66,48.66,0,0,0-6.11,6.87c-1,1.39-1.8,2.41-2.36,3.06a3.3,3.3,0,0,1-2.63,1h-29.7a2.53,2.53,0,0,1-1.87-.77,2.37,2.37,0,0,1-.77-1.73,3.71,3.71,0,0,1,.14-1.11,25.14,25.14,0,0,1,5.07-9,102.51,102.51,0,0,1,7.21-7.56q3.68-3.46,6.46-6.39t2.77-5.41a4.15,4.15,0,0,0-1.32-3.26,4.94,4.94,0,0,0-3.4-1.18c-2.49,0-4.23.44-5.2,1.32a11.21,11.21,0,0,0-2.36,3,26.59,26.59,0,0,1-1.87,3c-.65.88-1.85,1.31-3.61,1.31H358.56A2.92,2.92,0,0,1,356,59.79a5,5,0,0,1-.9-2.85V56.8A26.1,26.1,0,0,1,357.94,46a30.89,30.89,0,0,1,8.18-10.13A43.9,43.9,0,0,1,380,28.36,60.88,60.88,0,0,1,399.91,25.44Zm10,69a3.79,3.79,0,0,1,3.75,3.74v22.07A3.79,3.79,0,0,1,409.9,124H384.51a3.79,3.79,0,0,1-3.75-3.74V98.15a3.79,3.79,0,0,1,3.75-3.74Z" style="fill:#70a5c5"/><path d="M81.6,346.18q12.06,0,19.63,2.78a33.91,33.91,0,0,1,11.86,6.87,22.37,22.37,0,0,1,5.9,8.53,22.64,22.64,0,0,1-.76,18.46,42.49,42.49,0,0,1-5.69,8.6,94.26,94.26,0,0,1-6.94,7.28,47.94,47.94,0,0,0-6.1,6.87c-1,1.39-1.81,2.41-2.36,3.06a3.33,3.33,0,0,1-2.64,1H64.81a2.55,2.55,0,0,1-1.88-.77,2.35,2.35,0,0,1-.76-1.73,3.41,3.41,0,0,1,.14-1.11A25.12,25.12,0,0,1,67.37,397a102.6,102.6,0,0,1,7.22-7.56c2.45-2.32,4.6-4.44,6.45-6.39s2.78-3.74,2.78-5.41a4.15,4.15,0,0,0-1.32-3.26,4.94,4.94,0,0,0-3.4-1.18c-2.5,0-4.23.44-5.21,1.32a11.17,11.17,0,0,0-2.35,3,26.6,26.6,0,0,1-1.88,3c-.65.88-1.85,1.31-3.61,1.31H40.25a2.92,2.92,0,0,1-2.57-1.31,5,5,0,0,1-.9-2.85v-.14a26.23,26.23,0,0,1,2.84-10.82,30.8,30.8,0,0,1,8.19-10.13,43.85,43.85,0,0,1,13.87-7.49A61,61,0,0,1,81.6,346.18Zm10,69a3.79,3.79,0,0,1,3.74,3.74V441a3.79,3.79,0,0,1-3.74,3.74H66.19A3.79,3.79,0,0,1,62.45,441V418.89a3.79,3.79,0,0,1,3.74-3.74Z" style="fill:#70a5c5"/><path d="M242.42,185.81q12.08,0,19.63,2.78a34.06,34.06,0,0,1,11.87,6.87,22.44,22.44,0,0,1,5.89,8.53,23.33,23.33,0,0,1,1.6,7.77,23.63,23.63,0,0,1-2.36,10.69,42.08,42.08,0,0,1-5.69,8.6,92.39,92.39,0,0,1-6.94,7.28,48.56,48.56,0,0,0-6.1,6.87c-1,1.39-1.81,2.41-2.36,3.06a3.33,3.33,0,0,1-2.64,1H225.63a2.53,2.53,0,0,1-1.87-.77,2.37,2.37,0,0,1-.77-1.73,3.71,3.71,0,0,1,.14-1.11,25.14,25.14,0,0,1,5.07-9,100.47,100.47,0,0,1,7.21-7.56q3.68-3.47,6.45-6.39t2.78-5.41a4.15,4.15,0,0,0-1.32-3.26,4.94,4.94,0,0,0-3.4-1.18q-3.75,0-5.2,1.32a11.21,11.21,0,0,0-2.36,3,25.24,25.24,0,0,1-1.88,3c-.64.88-1.85,1.31-3.6,1.31H201.07a2.92,2.92,0,0,1-2.57-1.31,5,5,0,0,1-.9-2.85v-.14a26.23,26.23,0,0,1,2.84-10.82,31.05,31.05,0,0,1,8.19-10.13,43.79,43.79,0,0,1,13.88-7.49A60.88,60.88,0,0,1,242.42,185.81Zm10,69a3.79,3.79,0,0,1,3.75,3.74v22.07a3.79,3.79,0,0,1-3.75,3.74H227a3.79,3.79,0,0,1-3.75-3.74V258.52a3.79,3.79,0,0,1,3.75-3.74Z" style="fill:#70a5c5"/><path d="M399.91,506.55q12.07,0,19.63,2.78a34,34,0,0,1,11.87,6.87,22.48,22.48,0,0,1,5.9,8.53,22.7,22.7,0,0,1-.77,18.46,42.08,42.08,0,0,1-5.69,8.6,94.15,94.15,0,0,1-6.93,7.28,48.66,48.66,0,0,0-6.11,6.87c-1,1.39-1.8,2.41-2.36,3.06a3.3,3.3,0,0,1-2.63,1h-29.7a2.53,2.53,0,0,1-1.87-.77,2.37,2.37,0,0,1-.77-1.73,3.71,3.71,0,0,1,.14-1.11,25.14,25.14,0,0,1,5.07-9,102.51,102.51,0,0,1,7.21-7.56q3.68-3.47,6.46-6.39t2.77-5.41a4.15,4.15,0,0,0-1.32-3.26,4.94,4.94,0,0,0-3.4-1.18c-2.49,0-4.23.44-5.2,1.32a11.21,11.21,0,0,0-2.36,3,26.59,26.59,0,0,1-1.87,3c-.65.88-1.85,1.31-3.61,1.31H358.56A2.92,2.92,0,0,1,356,540.9a5,5,0,0,1-.9-2.85v-.14a26.1,26.1,0,0,1,2.85-10.82A30.89,30.89,0,0,1,366.12,517,43.9,43.9,0,0,1,380,509.47,60.61,60.61,0,0,1,399.91,506.55Zm10,69a3.79,3.79,0,0,1,3.75,3.74v22.07a3.79,3.79,0,0,1-3.75,3.74H384.51a3.79,3.79,0,0,1-3.75-3.74V579.26a3.79,3.79,0,0,1,3.75-3.74Z" style="fill:#70a5c5"/><path d="M722.39,666.92q12.08,0,19.64,2.78a34,34,0,0,1,11.86,6.87,22.48,22.48,0,0,1,5.9,8.53,22.7,22.7,0,0,1-.77,18.46,42,42,0,0,1-5.68,8.6,94.26,94.26,0,0,1-6.94,7.28,48.66,48.66,0,0,0-6.11,6.87c-1,1.39-1.8,2.41-2.36,3.06a3.3,3.3,0,0,1-2.63,1H705.6a2.54,2.54,0,0,1-1.87-.77,2.35,2.35,0,0,1-.76-1.73,3.41,3.41,0,0,1,.14-1.11,25,25,0,0,1,5.06-9,102.51,102.51,0,0,1,7.21-7.56q3.68-3.47,6.46-6.39t2.77-5.41a4.15,4.15,0,0,0-1.32-3.26,4.94,4.94,0,0,0-3.4-1.18c-2.49,0-4.23.44-5.2,1.32a11.21,11.21,0,0,0-2.36,3,25.22,25.22,0,0,1-1.87,3c-.65.88-1.85,1.31-3.61,1.31H681a2.9,2.9,0,0,1-2.56-1.31,4.9,4.9,0,0,1-.91-2.85v-.14a26.1,26.1,0,0,1,2.85-10.82,30.89,30.89,0,0,1,8.18-10.13,43.9,43.9,0,0,1,13.88-7.49A60.65,60.65,0,0,1,722.39,666.92Zm10,69a3.79,3.79,0,0,1,3.75,3.74V761.7a3.79,3.79,0,0,1-3.75,3.74H707a3.79,3.79,0,0,1-3.75-3.74V739.63a3.79,3.79,0,0,1,3.75-3.74Z" style="fill:#70a5c5"/><path d="M242.42,25.44q12.08,0,19.63,2.78a34.06,34.06,0,0,1,11.87,6.87,22.44,22.44,0,0,1,5.89,8.53,23.33,23.33,0,0,1,1.6,7.77,23.63,23.63,0,0,1-2.36,10.69,42.08,42.08,0,0,1-5.69,8.6A92.39,92.39,0,0,1,266.42,78a48.56,48.56,0,0,0-6.1,6.87c-1,1.39-1.81,2.41-2.36,3.06a3.33,3.33,0,0,1-2.64,1H225.63a2.53,2.53,0,0,1-1.87-.77,2.37,2.37,0,0,1-.77-1.73,3.71,3.71,0,0,1,.14-1.11,25.14,25.14,0,0,1,5.07-9,100.47,100.47,0,0,1,7.21-7.56q3.68-3.46,6.45-6.39t2.78-5.41a4.15,4.15,0,0,0-1.32-3.26,4.94,4.94,0,0,0-3.4-1.18q-3.75,0-5.2,1.32a11.21,11.21,0,0,0-2.36,3,25.24,25.24,0,0,1-1.88,3c-.64.88-1.85,1.31-3.6,1.31H201.07a2.92,2.92,0,0,1-2.57-1.31,5,5,0,0,1-.9-2.85V56.8A26.23,26.23,0,0,1,200.44,46a31.05,31.05,0,0,1,8.19-10.13,43.79,43.79,0,0,1,13.88-7.49A60.88,60.88,0,0,1,242.42,25.44Zm10,69a3.79,3.79,0,0,1,3.75,3.74v22.07a3.79,3.79,0,0,1-3.75,3.74H227a3.79,3.79,0,0,1-3.75-3.74V98.15A3.79,3.79,0,0,1,227,94.41Z" style="fill:#dce4e7"/><path d="M722.39,185.81q12.08,0,19.64,2.78a34,34,0,0,1,11.86,6.87,22.48,22.48,0,0,1,5.9,8.53,22.7,22.7,0,0,1-.77,18.46,42,42,0,0,1-5.68,8.6,94.26,94.26,0,0,1-6.94,7.28,48.66,48.66,0,0,0-6.11,6.87c-1,1.39-1.8,2.41-2.36,3.06a3.3,3.3,0,0,1-2.63,1H705.6a2.54,2.54,0,0,1-1.87-.77,2.35,2.35,0,0,1-.76-1.73,3.41,3.41,0,0,1,.14-1.11,25,25,0,0,1,5.06-9,102.51,102.51,0,0,1,7.21-7.56q3.68-3.47,6.46-6.39t2.77-5.41a4.15,4.15,0,0,0-1.32-3.26,4.94,4.94,0,0,0-3.4-1.18c-2.49,0-4.23.44-5.2,1.32a11.21,11.21,0,0,0-2.36,3,25.22,25.22,0,0,1-1.87,3c-.65.88-1.85,1.31-3.61,1.31H681a2.9,2.9,0,0,1-2.56-1.31,4.9,4.9,0,0,1-.91-2.85v-.14a26.1,26.1,0,0,1,2.85-10.82,30.89,30.89,0,0,1,8.18-10.13,43.9,43.9,0,0,1,13.88-7.49A60.92,60.92,0,0,1,722.39,185.81Zm10,69a3.79,3.79,0,0,1,3.75,3.74v22.07a3.79,3.79,0,0,1-3.75,3.74H707a3.79,3.79,0,0,1-3.75-3.74V258.52a3.79,3.79,0,0,1,3.75-3.74Z" style="fill:#dce4e7"/><path d="M561.9,346.18q12.08,0,19.64,2.78a34,34,0,0,1,11.86,6.87,22.48,22.48,0,0,1,5.9,8.53,22.74,22.74,0,0,1-.76,18.46,42.49,42.49,0,0,1-5.69,8.6,94.26,94.26,0,0,1-6.94,7.28,48.66,48.66,0,0,0-6.11,6.87c-1,1.39-1.8,2.41-2.36,3.06a3.3,3.3,0,0,1-2.63,1h-29.7a2.54,2.54,0,0,1-1.87-.77,2.35,2.35,0,0,1-.76-1.73,3.41,3.41,0,0,1,.14-1.11,25,25,0,0,1,5.06-8.95,100.56,100.56,0,0,1,7.22-7.56q3.68-3.47,6.45-6.39t2.77-5.41a4.15,4.15,0,0,0-1.32-3.26,4.93,4.93,0,0,0-3.39-1.18q-3.75,0-5.21,1.32a11.21,11.21,0,0,0-2.36,3,25.22,25.22,0,0,1-1.87,3c-.65.88-1.85,1.31-3.61,1.31H520.55a2.9,2.9,0,0,1-2.56-1.31,4.9,4.9,0,0,1-.91-2.85v-.14a26.25,26.25,0,0,1,2.85-10.82,30.8,30.8,0,0,1,8.19-10.13A43.74,43.74,0,0,1,542,349.1,60.92,60.92,0,0,1,561.9,346.18Zm10,69a3.79,3.79,0,0,1,3.75,3.74V441a3.79,3.79,0,0,1-3.75,3.74H546.5a3.79,3.79,0,0,1-3.75-3.74V418.89a3.79,3.79,0,0,1,3.75-3.74Z" style="fill:#dce4e7"/><path d="M242.42,506.55q12.08,0,19.63,2.78a34.06,34.06,0,0,1,11.87,6.87,22.44,22.44,0,0,1,5.89,8.53,23.33,23.33,0,0,1,1.6,7.77,23.63,23.63,0,0,1-2.36,10.69,42.08,42.08,0,0,1-5.69,8.6,92.39,92.39,0,0,1-6.94,7.28,48.56,48.56,0,0,0-6.1,6.87c-1,1.39-1.81,2.41-2.36,3.06a3.33,3.33,0,0,1-2.64,1H225.63a2.53,2.53,0,0,1-1.87-.77,2.37,2.37,0,0,1-.77-1.73,3.71,3.71,0,0,1,.14-1.11,25.14,25.14,0,0,1,5.07-9,100.47,100.47,0,0,1,7.21-7.56q3.68-3.47,6.45-6.39t2.78-5.41a4.15,4.15,0,0,0-1.32-3.26,4.94,4.94,0,0,0-3.4-1.18q-3.75,0-5.2,1.32a11.21,11.21,0,0,0-2.36,3,25.24,25.24,0,0,1-1.88,3c-.64.88-1.85,1.31-3.6,1.31H201.07a2.92,2.92,0,0,1-2.57-1.31,5,5,0,0,1-.9-2.85v-.14a26.23,26.23,0,0,1,2.84-10.82A31.05,31.05,0,0,1,208.63,517a43.79,43.79,0,0,1,13.88-7.49A60.61,60.61,0,0,1,242.42,506.55Zm10,69a3.79,3.79,0,0,1,3.75,3.74v22.07a3.79,3.79,0,0,1-3.75,3.74H227a3.79,3.79,0,0,1-3.75-3.74V579.26a3.79,3.79,0,0,1,3.75-3.74Z" style="fill:#dce4e7"/><path d="M81.6,666.92q12.06,0,19.63,2.78a33.91,33.91,0,0,1,11.86,6.87,22.37,22.37,0,0,1,5.9,8.53,22.64,22.64,0,0,1-.76,18.46,42.49,42.49,0,0,1-5.69,8.6,94.26,94.26,0,0,1-6.94,7.28,47.94,47.94,0,0,0-6.1,6.87c-1,1.39-1.81,2.41-2.36,3.06a3.33,3.33,0,0,1-2.64,1H64.81a2.55,2.55,0,0,1-1.88-.77,2.35,2.35,0,0,1-.76-1.73,3.41,3.41,0,0,1,.14-1.11,25.12,25.12,0,0,1,5.06-9,102.6,102.6,0,0,1,7.22-7.56q3.68-3.47,6.45-6.39t2.78-5.41a4.15,4.15,0,0,0-1.32-3.26A4.94,4.94,0,0,0,79.1,694c-2.5,0-4.23.44-5.21,1.32a11.17,11.17,0,0,0-2.35,3,26.6,26.6,0,0,1-1.88,3c-.65.88-1.85,1.31-3.61,1.31H40.25a2.92,2.92,0,0,1-2.57-1.31,5,5,0,0,1-.9-2.85v-.14a26.23,26.23,0,0,1,2.84-10.82,30.8,30.8,0,0,1,8.19-10.13,43.85,43.85,0,0,1,13.87-7.49A60.72,60.72,0,0,1,81.6,666.92Zm10,69a3.79,3.79,0,0,1,3.74,3.74V761.7a3.79,3.79,0,0,1-3.74,3.74H66.19a3.79,3.79,0,0,1-3.74-3.74V739.63a3.79,3.79,0,0,1,3.74-3.74Z" style="fill:#dce4e7"/><path d="M81.6,25.44q12.06,0,19.63,2.78a33.91,33.91,0,0,1,11.86,6.87,22.37,22.37,0,0,1,5.9,8.53,22.64,22.64,0,0,1-.76,18.46,42.49,42.49,0,0,1-5.69,8.6A94.26,94.26,0,0,1,105.6,78a47.94,47.94,0,0,0-6.1,6.87c-1,1.39-1.81,2.41-2.36,3.06a3.33,3.33,0,0,1-2.64,1H64.81a2.55,2.55,0,0,1-1.88-.77,2.35,2.35,0,0,1-.76-1.73,3.41,3.41,0,0,1,.14-1.11,25.12,25.12,0,0,1,5.06-9,102.6,102.6,0,0,1,7.22-7.56q3.68-3.46,6.45-6.39t2.78-5.41a4.15,4.15,0,0,0-1.32-3.26,4.94,4.94,0,0,0-3.4-1.18c-2.5,0-4.23.44-5.21,1.32a11.17,11.17,0,0,0-2.35,3,26.6,26.6,0,0,1-1.88,3c-.65.88-1.85,1.31-3.61,1.31H40.25a2.92,2.92,0,0,1-2.57-1.31,5,5,0,0,1-.9-2.85V56.8A26.23,26.23,0,0,1,39.62,46a30.8,30.8,0,0,1,8.19-10.13,43.85,43.85,0,0,1,13.87-7.49A61,61,0,0,1,81.6,25.44Zm10,69a3.79,3.79,0,0,1,3.74,3.74v22.07A3.79,3.79,0,0,1,91.59,124H66.19a3.79,3.79,0,0,1-3.74-3.74V98.15a3.79,3.79,0,0,1,3.74-3.74Z" style="fill:#fcbf0f"/><path d="M399.91,185.81q12.07,0,19.63,2.78a34,34,0,0,1,11.87,6.87,22.48,22.48,0,0,1,5.9,8.53,22.7,22.7,0,0,1-.77,18.46,42.08,42.08,0,0,1-5.69,8.6,94.15,94.15,0,0,1-6.93,7.28,48.66,48.66,0,0,0-6.11,6.87c-1,1.39-1.8,2.41-2.36,3.06a3.3,3.3,0,0,1-2.63,1h-29.7a2.53,2.53,0,0,1-1.87-.77,2.37,2.37,0,0,1-.77-1.73,3.71,3.71,0,0,1,.14-1.11,25.14,25.14,0,0,1,5.07-9,102.51,102.51,0,0,1,7.21-7.56q3.68-3.47,6.46-6.39t2.77-5.41a4.15,4.15,0,0,0-1.32-3.26,4.94,4.94,0,0,0-3.4-1.18c-2.49,0-4.23.44-5.2,1.32a11.21,11.21,0,0,0-2.36,3,26.59,26.59,0,0,1-1.87,3c-.65.88-1.85,1.31-3.61,1.31H358.56a2.92,2.92,0,0,1-2.57-1.31,5,5,0,0,1-.9-2.85v-.14a26.1,26.1,0,0,1,2.85-10.82,30.89,30.89,0,0,1,8.18-10.13A43.9,43.9,0,0,1,380,188.73,60.88,60.88,0,0,1,399.91,185.81Zm10,69a3.79,3.79,0,0,1,3.75,3.74v22.07a3.79,3.79,0,0,1-3.75,3.74H384.51a3.79,3.79,0,0,1-3.75-3.74V258.52a3.79,3.79,0,0,1,3.75-3.74Z" style="fill:#fcbf0f"/><path d="M242.42,346.18q12.08,0,19.63,2.78a34.06,34.06,0,0,1,11.87,6.87,22.44,22.44,0,0,1,5.89,8.53,23.33,23.33,0,0,1,1.6,7.77,23.63,23.63,0,0,1-2.36,10.69,42.08,42.08,0,0,1-5.69,8.6,92.39,92.39,0,0,1-6.94,7.28,48.56,48.56,0,0,0-6.1,6.87c-1,1.39-1.81,2.41-2.36,3.06a3.33,3.33,0,0,1-2.64,1H225.63a2.53,2.53,0,0,1-1.87-.77,2.37,2.37,0,0,1-.77-1.73,3.71,3.71,0,0,1,.14-1.11A25.14,25.14,0,0,1,228.2,397a100.47,100.47,0,0,1,7.21-7.56q3.68-3.47,6.45-6.39t2.78-5.41a4.15,4.15,0,0,0-1.32-3.26,4.94,4.94,0,0,0-3.4-1.18q-3.75,0-5.2,1.32a11.21,11.21,0,0,0-2.36,3,25.24,25.24,0,0,1-1.88,3c-.64.88-1.85,1.31-3.6,1.31H201.07a2.92,2.92,0,0,1-2.57-1.31,5,5,0,0,1-.9-2.85v-.14a26.23,26.23,0,0,1,2.84-10.82,31.05,31.05,0,0,1,8.19-10.13,43.79,43.79,0,0,1,13.88-7.49A60.88,60.88,0,0,1,242.42,346.18Zm10,69a3.79,3.79,0,0,1,3.75,3.74V441a3.79,3.79,0,0,1-3.75,3.74H227a3.79,3.79,0,0,1-3.75-3.74V418.89a3.79,3.79,0,0,1,3.75-3.74Z" style="fill:#fcbf0f"/><path d="M81.6,506.55q12.06,0,19.63,2.78a33.91,33.91,0,0,1,11.86,6.87,22.37,22.37,0,0,1,5.9,8.53,22.64,22.64,0,0,1-.76,18.46,42.49,42.49,0,0,1-5.69,8.6,94.26,94.26,0,0,1-6.94,7.28,48.66,48.66,0,0,0-6.11,6.87c-1,1.39-1.8,2.41-2.35,3.06a3.33,3.33,0,0,1-2.64,1H64.81a2.55,2.55,0,0,1-1.88-.77,2.35,2.35,0,0,1-.76-1.73,3.71,3.71,0,0,1,.14-1.11,25,25,0,0,1,5.06-9,102.6,102.6,0,0,1,7.22-7.56q3.68-3.47,6.45-6.39t2.77-5.41a4.14,4.14,0,0,0-1.31-3.26,5,5,0,0,0-3.4-1.18q-3.75,0-5.2,1.32a11,11,0,0,0-2.36,3,26.6,26.6,0,0,1-1.88,3c-.65.88-1.85,1.31-3.6,1.31H40.24a2.92,2.92,0,0,1-2.56-1.31,5,5,0,0,1-.9-2.85v-.14a26.23,26.23,0,0,1,2.84-10.82A30.8,30.8,0,0,1,47.81,517a43.85,43.85,0,0,1,13.87-7.49A60.72,60.72,0,0,1,81.6,506.55Zm10,69a3.79,3.79,0,0,1,3.74,3.74v22.07a3.79,3.79,0,0,1-3.74,3.74H66.19a3.79,3.79,0,0,1-3.74-3.74V579.26a3.79,3.79,0,0,1,3.74-3.74Z" style="fill:#fcbf0f"/><path d="M399.91,666.92q12.07,0,19.63,2.78a34,34,0,0,1,11.87,6.87,22.48,22.48,0,0,1,5.9,8.53,22.7,22.7,0,0,1-.77,18.46,42.45,42.45,0,0,1-5.68,8.6,96.2,96.2,0,0,1-6.94,7.28,48.66,48.66,0,0,0-6.11,6.87c-1,1.39-1.8,2.41-2.36,3.06a3.3,3.3,0,0,1-2.63,1h-29.7a2.54,2.54,0,0,1-1.87-.77,2.37,2.37,0,0,1-.77-1.73,3.38,3.38,0,0,1,.15-1.11,25,25,0,0,1,5.06-9,102.51,102.51,0,0,1,7.21-7.56q3.68-3.47,6.46-6.39t2.77-5.41a4.15,4.15,0,0,0-1.32-3.26,4.94,4.94,0,0,0-3.4-1.18c-2.49,0-4.23.44-5.2,1.32a11.21,11.21,0,0,0-2.36,3,25.22,25.22,0,0,1-1.87,3c-.65.88-1.85,1.31-3.61,1.31H358.56a2.93,2.93,0,0,1-2.57-1.31,5,5,0,0,1-.9-2.85v-.14a26.1,26.1,0,0,1,2.85-10.82,30.89,30.89,0,0,1,8.18-10.13A43.9,43.9,0,0,1,380,669.84,60.65,60.65,0,0,1,399.91,666.92Zm10,69a3.79,3.79,0,0,1,3.75,3.74V761.7a3.79,3.79,0,0,1-3.75,3.74H384.51a3.79,3.79,0,0,1-3.75-3.74V739.63a3.79,3.79,0,0,1,3.75-3.74Z" style="fill:#fcbf0f"/><path d="M722.39,25.44q12.08,0,19.64,2.78a34,34,0,0,1,11.86,6.87,22.48,22.48,0,0,1,5.9,8.53A22.7,22.7,0,0,1,759,62.08a42,42,0,0,1-5.68,8.6A94.26,94.26,0,0,1,746.4,78a48.66,48.66,0,0,0-6.11,6.87c-1,1.39-1.8,2.41-2.36,3.06a3.3,3.3,0,0,1-2.63,1H705.6a2.54,2.54,0,0,1-1.87-.77,2.35,2.35,0,0,1-.76-1.73,3.41,3.41,0,0,1,.14-1.11,25,25,0,0,1,5.06-9,102.51,102.51,0,0,1,7.21-7.56q3.68-3.46,6.46-6.39t2.77-5.41a4.15,4.15,0,0,0-1.32-3.26,4.94,4.94,0,0,0-3.4-1.18c-2.49,0-4.23.44-5.2,1.32a11.21,11.21,0,0,0-2.36,3,25.22,25.22,0,0,1-1.87,3c-.65.88-1.85,1.31-3.61,1.31H681a2.9,2.9,0,0,1-2.56-1.31,4.9,4.9,0,0,1-.91-2.85V56.8A26.1,26.1,0,0,1,680.42,46a30.89,30.89,0,0,1,8.18-10.13,43.9,43.9,0,0,1,13.88-7.49A60.92,60.92,0,0,1,722.39,25.44Zm10,69a3.79,3.79,0,0,1,3.75,3.74v22.07a3.79,3.79,0,0,1-3.75,3.74H707a3.79,3.79,0,0,1-3.75-3.74V98.15A3.79,3.79,0,0,1,707,94.41Z" style="fill:#ec8658"/><path d="M722.39,506.55q12.08,0,19.64,2.78a34,34,0,0,1,11.86,6.87,22.48,22.48,0,0,1,5.9,8.53,22.7,22.7,0,0,1-.77,18.46,42,42,0,0,1-5.68,8.6,96.26,96.26,0,0,1-6.94,7.29,48.06,48.06,0,0,0-6.11,6.86c-1,1.39-1.8,2.41-2.36,3.06a3.3,3.3,0,0,1-2.63,1H705.6a2.54,2.54,0,0,1-1.87-.77,2.35,2.35,0,0,1-.76-1.73,3.41,3.41,0,0,1,.14-1.11,25,25,0,0,1,5.06-9,102.51,102.51,0,0,1,7.21-7.56q3.68-3.47,6.46-6.39t2.77-5.41a4.16,4.16,0,0,0-1.32-3.26,4.94,4.94,0,0,0-3.4-1.18c-2.49,0-4.23.44-5.2,1.32a11.21,11.21,0,0,0-2.36,3,25.22,25.22,0,0,1-1.87,3c-.65.88-1.85,1.32-3.61,1.32H681a2.91,2.91,0,0,1-2.56-1.32,4.9,4.9,0,0,1-.91-2.85v-.14a26.1,26.1,0,0,1,2.85-10.82A30.89,30.89,0,0,1,688.6,517a43.9,43.9,0,0,1,13.88-7.49A60.92,60.92,0,0,1,722.39,506.55Zm10,69a3.79,3.79,0,0,1,3.75,3.74v22.07a3.79,3.79,0,0,1-3.75,3.74H707a3.79,3.79,0,0,1-3.75-3.74V579.26a3.79,3.79,0,0,1,3.75-3.74Z" style="fill:#ec8658"/><path d="M561.9,666.92q12.08,0,19.64,2.78a34,34,0,0,1,11.86,6.87,22.48,22.48,0,0,1,5.9,8.53,22.74,22.74,0,0,1-.76,18.46,42.49,42.49,0,0,1-5.69,8.6,94.26,94.26,0,0,1-6.94,7.28,48.66,48.66,0,0,0-6.11,6.87c-1,1.39-1.8,2.41-2.36,3.06a3.3,3.3,0,0,1-2.63,1h-29.7a2.54,2.54,0,0,1-1.87-.77,2.35,2.35,0,0,1-.76-1.73,3.41,3.41,0,0,1,.14-1.11,25,25,0,0,1,5.06-9,100.56,100.56,0,0,1,7.22-7.56q3.68-3.47,6.45-6.39t2.77-5.41a4.16,4.16,0,0,0-1.32-3.26,4.93,4.93,0,0,0-3.39-1.18q-3.75,0-5.21,1.32a11.21,11.21,0,0,0-2.36,3,25.22,25.22,0,0,1-1.87,3c-.65.88-1.85,1.31-3.61,1.31H520.55a2.9,2.9,0,0,1-2.56-1.31,4.9,4.9,0,0,1-.91-2.85v-.14a26.25,26.25,0,0,1,2.85-10.82,30.8,30.8,0,0,1,8.19-10.13A43.74,43.74,0,0,1,542,669.84,60.92,60.92,0,0,1,561.9,666.92Zm10,69a3.79,3.79,0,0,1,3.75,3.74V761.7a3.79,3.79,0,0,1-3.75,3.74H546.5a3.79,3.79,0,0,1-3.75-3.74V739.63a3.79,3.79,0,0,1,3.75-3.74Z" style="fill:#ec8658"/><path d="M399.91,346.18q12.07,0,19.63,2.78a34,34,0,0,1,11.87,6.87,22.48,22.48,0,0,1,5.9,8.53,22.7,22.7,0,0,1-.77,18.46,42.08,42.08,0,0,1-5.69,8.6,94.15,94.15,0,0,1-6.93,7.28,48.66,48.66,0,0,0-6.11,6.87c-1,1.39-1.8,2.41-2.36,3.06a3.3,3.3,0,0,1-2.63,1h-29.7a2.53,2.53,0,0,1-1.87-.77,2.37,2.37,0,0,1-.77-1.73,3.71,3.71,0,0,1,.14-1.11,25.14,25.14,0,0,1,5.07-8.95,102.51,102.51,0,0,1,7.21-7.56q3.68-3.47,6.46-6.39t2.77-5.41a4.15,4.15,0,0,0-1.32-3.26,4.94,4.94,0,0,0-3.4-1.18c-2.49,0-4.23.44-5.2,1.32a11.21,11.21,0,0,0-2.36,3,26.59,26.59,0,0,1-1.87,3c-.65.88-1.85,1.31-3.61,1.31H358.56a2.92,2.92,0,0,1-2.57-1.31,5,5,0,0,1-.9-2.85v-.14a26.1,26.1,0,0,1,2.85-10.82,30.89,30.89,0,0,1,8.18-10.13A43.9,43.9,0,0,1,380,349.1,60.88,60.88,0,0,1,399.91,346.18Zm10,69a3.79,3.79,0,0,1,3.75,3.74V441a3.79,3.79,0,0,1-3.75,3.74H384.51a3.79,3.79,0,0,1-3.75-3.74V418.89a3.79,3.79,0,0,1,3.75-3.74Z" style="fill:#ec8658"/><path d="M561.9,185.81q12.08,0,19.64,2.78a34,34,0,0,1,11.86,6.87,22.48,22.48,0,0,1,5.9,8.53,22.74,22.74,0,0,1-.76,18.46,42.49,42.49,0,0,1-5.69,8.6,94.26,94.26,0,0,1-6.94,7.28,48.66,48.66,0,0,0-6.11,6.87c-1,1.39-1.8,2.41-2.36,3.06a3.3,3.3,0,0,1-2.63,1h-29.7a2.54,2.54,0,0,1-1.87-.77,2.35,2.35,0,0,1-.76-1.73,3.41,3.41,0,0,1,.14-1.11,25,25,0,0,1,5.06-9,100.56,100.56,0,0,1,7.22-7.56q3.68-3.47,6.45-6.39t2.77-5.41a4.15,4.15,0,0,0-1.32-3.26,4.93,4.93,0,0,0-3.39-1.18q-3.75,0-5.21,1.32a11.21,11.21,0,0,0-2.36,3,25.22,25.22,0,0,1-1.87,3c-.65.88-1.85,1.32-3.61,1.32H520.55a2.91,2.91,0,0,1-2.56-1.32,4.9,4.9,0,0,1-.91-2.85v-.14a26.25,26.25,0,0,1,2.85-10.82,30.8,30.8,0,0,1,8.19-10.13A43.74,43.74,0,0,1,542,188.73,60.92,60.92,0,0,1,561.9,185.81Zm10,69a3.79,3.79,0,0,1,3.75,3.74v22.07a3.79,3.79,0,0,1-3.75,3.74H546.5a3.79,3.79,0,0,1-3.75-3.74V258.52a3.79,3.79,0,0,1,3.75-3.74Z" style="fill:#ec8658"/></svg>